<?xml version="1.0" encoding="UTF-8"?>
<svg version="1.1" xmlns="http://www.w3.org/2000/svg" width="1200" height="600">
<path d="M0 0 C396 0 792 0 1200 0 C1200 198 1200 396 1200 600 C804 600 408 600 0 600 C0 402 0 204 0 0 Z " fill="#FEFEFE" transform="translate(0,0)"/>
<path d="M0 0 C9.86662981 8.19460026 14.638028 18.41265802 15.85401058 31.13186312 C15.96600273 34.09907029 15.98798123 37.05228707 15.97253418 40.02154541 C15.98167084 41.70445683 15.98167084 41.70445683 15.99099207 43.42136645 C16.00752184 47.14722747 16.0028605 50.87274297 15.99804688 54.59863281 C16.00539305 57.28377943 16.01388932 59.96890099 16.02371216 62.65403748 C16.0446812 69.17096021 16.04931192 75.68779383 16.04752427 82.20474634 C16.04621227 87.50706055 16.05004305 92.80934716 16.05744934 98.11165619 C16.05954873 99.64393512 16.06164633 101.17621406 16.06374216 102.70849299 C16.06478569 103.47135839 16.06582922 104.23422378 16.06690437 105.0202063 C16.08577253 119.42149677 16.08476714 133.82273622 16.07793504 148.22403392 C16.07236277 161.36869027 16.0931776 174.51315154 16.12629551 187.65776232 C16.16011462 201.18674468 16.17519059 214.71563381 16.17057848 228.24465919 C16.16834199 235.82728406 16.17345593 243.40972867 16.19847107 250.9923172 C16.21959088 257.44860809 16.22297138 263.90461989 16.20417148 270.36092266 C16.19507842 273.64818509 16.19643512 276.93482667 16.21452713 280.22206688 C16.30880141 298.63075932 16.08338804 316.08263197 2.578125 330.24609375 C-0.24957532 332.68077435 -3.12517582 334.5112825 -6.421875 336.24609375 C-7.11152344 336.65730469 -7.80117188 337.06851562 -8.51171875 337.4921875 C-17.5743753 342.09518881 -29.8512644 341.60193403 -39.62109375 339.5859375 C-49.02577354 336.17544922 -57.46449684 328.89067607 -62.421875 320.24609375 C-64.49038219 315.38049054 -65.9899658 310.3287797 -67.421875 305.24609375 C-67.69446814 304.29829101 -67.69446814 304.29829101 -67.97256821 303.33134073 C-68.47332564 301.0073097 -68.55091521 298.90408226 -68.55609608 296.52667332 C-68.56055392 295.57575922 -68.56501176 294.62484511 -68.56960469 293.64511544 C-68.56942033 292.60340547 -68.56923597 291.56169551 -68.56904602 290.48841858 C-68.57272271 289.37936344 -68.5763994 288.2703083 -68.5801875 287.12764543 C-68.5912328 283.39767369 -68.59506967 279.6677298 -68.59887695 275.93774414 C-68.60514107 273.26862421 -68.61177508 270.59950725 -68.61878967 267.9303894 C-68.63854292 259.90968016 -68.64862008 251.88896967 -68.65751746 243.86824217 C-68.66190333 240.08785985 -68.66726947 236.30747892 -68.67250633 232.5270977 C-68.68951954 219.95366361 -68.70401168 207.38023037 -68.71125507 194.80678654 C-68.71316487 191.54461224 -68.71508521 188.28243794 -68.71704102 185.02026367 C-68.71752476 184.20949788 -68.7180085 183.39873209 -68.7185069 182.56339764 C-68.72679956 169.44210857 -68.75212313 156.32091088 -68.78462169 143.19966168 C-68.81774131 129.7172925 -68.83570837 116.23496967 -68.83889931 102.7525596 C-68.84106017 95.18725222 -68.84974616 87.62207801 -68.87536049 80.05681038 C-68.89713482 73.61089791 -68.90508511 67.16515094 -68.89539371 60.71920586 C-68.89086795 57.43446278 -68.89484378 54.15012974 -68.91215515 50.86541939 C-69.00498654 32.20094357 -68.71036782 17.3668195 -55.35546875 3.02734375 C-39.70591779 -11.97830798 -17.30730559 -12.53383905 0 0 Z " fill="#F9AB01" transform="translate(357.421875,133.75390625)"/>
<path d="M0 0 C9.42770842 7.3356809 15.18660349 17.63195764 17.1875 29.375 C17.2797759 31.31852875 17.3222239 33.2647548 17.32794189 35.21046448 C17.33365204 36.37797745 17.33936218 37.54549042 17.34524536 38.74838257 C17.34692215 40.65679428 17.34692215 40.65679428 17.34863281 42.60375977 C17.35326497 43.96432122 17.35829016 45.32488139 17.36367798 46.68544006 C17.37676979 50.37591418 17.38324119 54.06637013 17.38768864 57.75686383 C17.3906259 60.06711331 17.39473203 62.3773579 17.39919281 64.6876049 C17.41286221 71.92885201 17.42253035 79.17008786 17.4263947 86.41134697 C17.4308676 94.74539305 17.44838199 103.07927448 17.4773953 111.41327053 C17.49908697 117.87040904 17.50910304 124.3275015 17.51043582 130.78467602 C17.51147894 134.63372733 17.51728028 138.48262377 17.53525543 142.33163643 C17.55186511 145.95882997 17.55382995 149.58575437 17.54511642 153.21297264 C17.54399201 155.15964102 17.55761122 157.10630099 17.5718689 159.05291748 C17.50585166 173.1267059 14.29377758 187.28120827 4.375 197.8125 C-5.77765426 207.14983594 -16.48035138 209.0516448 -29.8125 208.7421875 C-40.01903052 208.20359438 -47.38932634 203.85495419 -54.625 196.81640625 C-64.83937687 185.41643207 -67.42420115 171.76329512 -67.33007812 156.85498047 C-67.33551467 155.45220214 -67.34264583 154.04942954 -67.35131836 152.64666748 C-67.36936975 148.87807816 -67.36256157 145.10993263 -67.34980202 141.34133673 C-67.33958291 137.3746924 -67.34909179 133.4080828 -67.35534668 129.44143677 C-67.36259572 122.78592189 -67.35310616 116.13058537 -67.33398438 109.47509766 C-67.31220289 101.80582945 -67.31928717 94.13698649 -67.34129 86.4677285 C-67.35950127 79.85245046 -67.36197501 73.23729966 -67.35153532 66.62200463 C-67.345334 62.68423063 -67.34437151 58.7466559 -67.35768127 54.80889511 C-67.36932384 51.10678911 -67.36106301 47.40522635 -67.33810425 43.70317841 C-67.33038272 41.71467311 -67.34209957 39.72612129 -67.35461426 37.73764038 C-67.24440944 25.9350975 -64.0845277 16.68177998 -56.8125 7.375 C-56.33425781 6.75882812 -55.85601562 6.14265625 -55.36328125 5.5078125 C-41.11452437 -10.64317137 -17.15175779 -11.55930197 0 0 Z " fill="#E37401" transform="translate(246.8125,265.625)"/>
<path d="M0 0 C1.90911546 1.42398375 3.70886575 2.91456638 5.51171875 4.46875 C6.50171875 5.12875 7.49171875 5.78875 8.51171875 6.46875 C8.51171875 2.50875 8.51171875 -1.45125 8.51171875 -5.53125 C15.44171875 -5.53125 22.37171875 -5.53125 29.51171875 -5.53125 C29.60233422 8.06490383 29.67561604 21.66085484 29.71896744 35.25724316 C29.73978109 41.57159393 29.76798488 47.88572615 29.81347656 54.19995117 C29.85715632 60.30134014 29.88090258 66.40251978 29.89122772 72.50405312 C29.89857947 74.82389937 29.91293504 77.14373506 29.93463898 79.46349144 C30.14297626 102.6682448 30.14297626 102.6682448 25.51171875 113.46875 C25.06049652 114.61001595 25.06049652 114.61001595 24.60015869 115.77433777 C20.55695015 125.58046218 11.94754436 133.07972948 2.48046875 137.39453125 C-9.00293868 142.05414465 -24.93488784 142.60661555 -36.61328125 138.40625 C-42.2573895 135.86353626 -46.9257919 132.62866676 -51.48828125 128.46875 C-52.12507812 127.90027344 -52.761875 127.33179688 -53.41796875 126.74609375 C-57.43253875 122.96412759 -61.43296322 118.66056898 -63.48828125 113.46875 C-63.25341797 111.45898438 -63.25341797 111.45898438 -62.48828125 109.46875 C-59.83271168 108.14690609 -57.39377495 107.12096042 -54.61328125 106.15625 C-53.51306641 105.74149414 -53.51306641 105.74149414 -52.390625 105.31835938 C-46.89766444 103.33228894 -46.89766444 103.33228894 -43.48828125 104.46875 C-42.19921875 106.32421875 -42.19921875 106.32421875 -40.86328125 108.65625 C-37.12525424 114.53029244 -32.0906781 118.26795105 -25.48828125 120.46875 C-17.24380064 121.23421928 -10.87801253 120.13684125 -3.48828125 116.46875 C-2.77671875 116.17742187 -2.06515625 115.88609375 -1.33203125 115.5859375 C1.02006728 114.16072525 1.50240957 113.0077233 2.51171875 110.46875 C3.02412109 109.21964844 3.02412109 109.21964844 3.546875 107.9453125 C6.3701613 100.10881442 7.26600267 92.77395342 7.51171875 84.46875 C6.81046875 85.01144531 6.10921875 85.55414063 5.38671875 86.11328125 C4.43796875 86.82871094 3.48921875 87.54414063 2.51171875 88.28125 C1.58359375 88.98894531 0.65546875 89.69664062 -0.30078125 90.42578125 C-7.11127272 94.79083889 -13.20292123 96.02966483 -21.23828125 95.96875 C-22.11718018 95.96302979 -22.9960791 95.95730957 -23.90161133 95.95141602 C-37.62987454 95.5762164 -47.34468889 88.97470734 -56.67578125 79.34375 C-66.30986192 68.05591497 -69.58592328 53.98595098 -68.48828125 39.46875 C-66.48762462 23.39074581 -59.0837686 11.90781723 -46.4921875 1.87890625 C-32.7872414 -7.49516291 -14.33821658 -8.8235179 0 0 Z " fill="#767676" transform="translate(880.48828125,175.53125)"/>
<path d="M0 0 C1.09352783 0.00829834 2.18705566 0.01659668 3.3137207 0.02514648 C23.99253357 0.45357282 40.1135755 8.47676001 55.8125 21.4375 C54.15386495 25.76254836 50.941459 28.53168825 47.6875 31.6875 C47.12417969 32.24179688 46.56085938 32.79609375 45.98046875 33.3671875 C44.59563972 34.72854485 43.20466796 36.08364859 41.8125 37.4375 C41.18085937 37.00179687 40.54921875 36.56609375 39.8984375 36.1171875 C24.67769679 25.98464829 9.04308679 21.02567391 -9.3203125 23.93359375 C-24.23342484 27.69373746 -36.74261819 36.57083458 -45.1875 49.4375 C-52.92289605 63.56749012 -56.11849447 79.75550691 -52.3125 95.68359375 C-47.35221256 111.62504385 -38.05160088 124.03924506 -23.3046875 131.9921875 C-14.88773158 135.95448708 -7.19721407 137.81592555 2.0625 137.75 C2.89587891 137.74436035 3.72925781 137.7387207 4.58789062 137.73291016 C19.38603343 137.44348095 31.70455893 132.32963225 42.515625 122.12109375 C49.31738608 114.17413821 51.77201135 105.63994325 53.8125 95.4375 C36.9825 95.4375 20.1525 95.4375 2.8125 95.4375 C2.8125 87.5175 2.8125 79.5975 2.8125 71.4375 C26.9025 71.4375 50.9925 71.4375 75.8125 71.4375 C80.53362328 80.87974656 76.93847714 98.94612585 73.8125 108.4375 C73.4721875 109.52160156 73.131875 110.60570312 72.78125 111.72265625 C66.9607188 128.53533929 54.04287491 142.69169888 38.2734375 150.81640625 C20.52423701 159.13008368 -2.94188705 160.87337407 -21.71484375 154.8203125 C-46.35777533 145.0074916 -63.12998529 129.73484279 -74.0625 105.3125 C-81.10705915 87.26229961 -79.8875118 66.55901464 -72.71484375 48.7890625 C-62.78861619 27.52863184 -45.31795682 11.52912698 -23.1875 3.4375 C-15.38434547 0.83105715 -8.20974701 -0.080969 0 0 Z " fill="#767676" transform="translate(508.1875,116.5625)"/>
<path d="M0 0 C1.45792969 0.77923828 1.45792969 0.77923828 2.9453125 1.57421875 C13.0156899 7.46003878 19.58542326 15.23733035 24 26 C24.55107422 27.28583984 24.55107422 27.28583984 25.11328125 28.59765625 C26.38896557 33.49246262 26.32870795 38.21256784 26.3125 43.25 C26.32861328 44.23613281 26.34472656 45.22226563 26.36132812 46.23828125 C26.3696772 58.91217113 21.91410524 68.83944666 14.8125 79.1875 C3.70002569 90.29997431 -8.94210146 96.05770111 -24.5625 96.4375 C-38.71196768 96.41582138 -50.60285226 91.69764545 -61 82 C-71.49778317 71.11484476 -75.37128398 57.80617373 -75.30273438 43.01831055 C-74.96143893 29.55136123 -69.73832631 18.03884522 -60.51171875 8.32421875 C-44.48270471 -6.50822815 -19.4258336 -10.62770675 0 0 Z " fill="#767676" transform="translate(778,177)"/>
<path d="M0 0 C2.2619808 1.65094237 4.25984421 3.37253578 6.265625 5.32421875 C6.88695312 5.91847656 7.50828125 6.51273438 8.1484375 7.125 C18.01885659 17.44407451 21.69331065 30.01135813 21.70483398 43.95458984 C21.27156075 58.12575459 15.44693412 69.88249855 5.828125 80.13671875 C-3.8744162 89.22221238 -16.79881172 93.78615872 -30.046875 93.82421875 C-44.74674095 93.29255204 -56.53834694 88.27727449 -67.18359375 78.12890625 C-78.36398904 65.83560791 -80.51928619 52.30965203 -80.08203125 36.3046875 C-79.77497474 30.40017793 -78.53250387 25.54564926 -75.734375 20.32421875 C-75.09822266 19.05771484 -75.09822266 19.05771484 -74.44921875 17.765625 C-67.58298217 5.19983828 -56.511107 -3.16462274 -42.80102539 -7.25219727 C-27.96924919 -10.29214195 -12.8233107 -7.85885756 0 0 Z " fill="#767676" transform="translate(672.734375,179.67578125)"/>
<path d="M0 0 C1.18613892 0.00785522 1.18613892 0.00785522 2.39624023 0.01586914 C3.67724609 0.02070313 3.67724609 0.02070313 4.98413086 0.02563477 C5.88196289 0.03401367 6.77979492 0.04239258 7.70483398 0.05102539 C8.6065332 0.05553711 9.50823242 0.06004883 10.43725586 0.06469727 C12.67235033 0.07652316 14.90729891 0.09384295 17.14233398 0.11352539 C20.31312211 6.17988274 22.85686859 12.31827721 25.23999023 18.73071289 C25.62679962 19.76043213 26.01360901 20.79015137 26.41213989 21.85107422 C27.24551043 24.07096754 28.07693028 26.29159395 28.90658569 28.51287842 C30.67430758 33.24539165 32.45170511 37.97425267 34.22840881 42.70339966 C35.15007986 45.15704975 36.07124752 47.61088898 36.9919281 50.06491089 C41.34353277 61.66228732 45.72844578 73.24687377 50.12838745 84.82598877 C51.28991839 87.8834566 52.44971775 90.94157698 53.609375 93.99975586 C54.34282448 95.93098155 55.07646366 97.86213521 55.81030273 99.79321289 C56.16179886 100.71955536 56.51329498 101.64589783 56.8754425 102.60031128 C58.77583581 107.59091597 60.7123498 112.56477808 62.69165039 117.5246582 C63.10973465 118.57630157 63.52781891 119.62794495 63.95857239 120.7114563 C64.76332767 122.73053097 65.57383632 124.74732489 66.39091492 126.76144409 C66.93169426 128.11932541 66.93169426 128.11932541 67.48339844 129.50463867 C67.80435989 130.30008087 68.12532135 131.09552307 68.45600891 131.91506958 C69.14233398 134.11352539 69.14233398 134.11352539 69.14233398 138.11352539 C62.87233398 138.11352539 56.60233398 138.11352539 50.14233398 138.11352539 C48.28797797 133.02423511 46.43556622 127.93432493 44.58813477 122.8425293 C43.95874975 121.10968972 43.32821982 119.37726555 42.6965332 117.64526367 C41.79005188 115.15919952 40.88766532 112.67168255 39.98608398 110.18383789 C39.55954529 109.01813766 39.55954529 109.01813766 39.12438965 107.82888794 C37.14233398 102.3412688 37.14233398 102.3412688 37.14233398 100.11352539 C17.67233398 100.11352539 -1.79766602 100.11352539 -21.85766602 100.11352539 C-22.18766602 102.09352539 -22.51766602 104.07352539 -22.85766602 106.11352539 C-23.55753609 108.23618423 -24.31110373 110.34163396 -25.10766602 112.42993164 C-25.55110352 113.60620117 -25.99454102 114.7824707 -26.45141602 115.99438477 C-26.91547852 117.20932617 -27.37954102 118.42426758 -27.85766602 119.67602539 C-28.77780723 122.09267406 -29.69460951 124.51059734 -30.60766602 126.92993164 C-31.01500977 127.99671143 -31.42235352 129.06349121 -31.84204102 130.16259766 C-33.0322266 133.40706561 -33.0322266 133.40706561 -33.85766602 138.11352539 C-40.45766602 138.11352539 -47.05766602 138.11352539 -53.85766602 138.11352539 C-52.99015592 133.77597493 -51.77636907 129.9131021 -50.21704102 125.80883789 C-49.94288864 125.07831711 -49.66873627 124.34779633 -49.38627625 123.59513855 C-48.46401618 121.1414295 -47.53593976 118.68996513 -46.60766602 116.23852539 C-45.94479186 114.47972847 -45.28211828 112.72085595 -44.61962891 110.96191406 C-37.99967412 93.40884061 -31.29811606 75.88653905 -24.59399414 58.36547852 C-20.52227366 47.72267319 -16.45682183 37.07786015 -12.43969727 26.41430664 C-12.10646957 25.5302565 -11.77324188 24.64620636 -11.42991638 23.73536682 C-9.90128982 19.67834813 -8.37590479 15.62015374 -6.85546875 11.56005859 C-6.33023907 10.16378843 -5.80493501 8.76754624 -5.27954102 7.37133789 C-4.83191406 6.17653809 -4.38428711 4.98173828 -3.9230957 3.75073242 C-2.46875399 0.1508701 -2.46875399 0.1508701 0 0 Z " fill="#777777" transform="translate(473.857666015625,340.886474609375)"/>
<path d="M0 0 C0.84626953 -0.00322266 1.69253906 -0.00644531 2.56445312 -0.00976562 C14.18116955 0.08875703 24.31036517 3.52772874 32.8125 11.625 C42.95943762 22.46987513 43.24622349 34.79057477 43.1328125 49.0703125 C43.12907356 50.46849361 43.12623076 51.86667737 43.12423706 53.26486206 C43.11666983 56.91116817 43.09708246 60.55731014 43.0748291 64.20355225 C43.05422009 67.93776226 43.04520344 71.67199928 43.03515625 75.40625 C43.01382858 82.70841616 42.97870458 90.01041399 42.9375 97.3125 C37.6575 97.3125 32.3775 97.3125 26.9375 97.3125 C26.9375 92.6925 26.9375 88.0725 26.9375 83.3125 C26.2775 83.993125 25.6175 84.67375 24.9375 85.375 C24.47214844 85.83003906 24.00679687 86.28507812 23.52734375 86.75390625 C22.43589081 87.82390557 21.36639788 88.91662972 20.31640625 90.02734375 C13.3720038 96.85227261 4.0430555 100.48861755 -5.6875 100.8125 C-17.42670891 100.15648538 -27.27575859 96.70516969 -35.375 88 C-41.6073267 80.03164916 -43.27528302 72.37734875 -42.0625 62.3125 C-39.85308535 53.77553097 -33.51952016 46.157906 -26.1484375 41.41015625 C-17.3788362 36.79544096 -9.13235084 35.94137122 0.625 35.875 C1.58664062 35.8649292 2.54828125 35.8548584 3.5390625 35.84448242 C10.72341291 35.93133028 17.45801735 37.07275867 23.9375 40.3125 C24.38825874 34.00187764 23.72142302 29.50982955 19.9375 24.3125 C14.61518274 19.10874922 8.41572412 17.27276256 1.0625 17 C-5.48662747 17.15949169 -10.89302766 18.47316475 -15.9375 22.75 C-17.71755601 24.89653813 -19.45773609 27.03204603 -21.0625 29.3125 C-26.87511371 27.57267005 -31.89419994 25.5014511 -37.0625 22.3125 C-34.74046485 13.4465476 -29.56248561 9.68157358 -22.171875 4.92578125 C-14.79787736 1.09982519 -8.26955614 -0.1581782 0 0 Z " fill="#767676" transform="translate(693.0625,381.6875)"/>
<path d="M0 0 C12.3189645 7.7128774 19.90139063 18.55402427 25.11328125 31.94921875 C25.11328125 32.93921875 25.11328125 33.92921875 25.11328125 34.94921875 C-11.33549751 50.36571729 -11.33549751 50.36571729 -28.63671875 57.44921875 C-29.75860596 57.91110596 -30.88049316 58.37299316 -32.03637695 58.84887695 C-33.0543335 59.26355225 -34.07229004 59.67822754 -35.12109375 60.10546875 C-35.99991211 60.46447266 -36.87873047 60.82347656 -37.78417969 61.19335938 C-39.88671875 61.94921875 -39.88671875 61.94921875 -41.88671875 61.94921875 C-38.87951449 68.15157754 -33.3906123 73.1444162 -27.07421875 75.88671875 C-19.33849912 78.30886188 -11.60919753 77.62968856 -4.25390625 74.36328125 C0.28922612 71.6493969 4.72038994 67.73500137 7.11328125 62.94921875 C11.54498298 64.46818243 15.14352201 66.87561684 18.92578125 69.57421875 C19.52326172 69.99445313 20.12074219 70.4146875 20.73632812 70.84765625 C22.1984869 71.87701603 23.65633024 72.91250105 25.11328125 73.94921875 C22.42851351 82.08920603 15.18301076 87.05642044 7.86474609 90.97485352 C-4.95222295 97.41783863 -18.73269673 99.26538339 -32.69921875 95.38671875 C-46.77541076 90.42172528 -57.14685627 81.17619887 -63.88671875 67.94921875 C-69.11725233 56.42569946 -70.31702611 40.18562197 -65.8515625 28.16796875 C-65.53316406 27.43578125 -65.21476563 26.70359375 -64.88671875 25.94921875 C-64.55800781 25.13453125 -64.22929688 24.31984375 -63.890625 23.48046875 C-58.74862558 11.95100292 -49.55154736 2.97574083 -37.87963867 -1.88696289 C-25.71934429 -6.3564266 -11.56683367 -5.83098901 0 0 Z " fill="#767676" transform="translate(1027.88671875,176.05078125)"/>
<path d="M0 0 C7.60349661 6.04762097 11.94782669 13.84348008 15 23 C15.90041848 37.52478329 14.54730839 49.36284299 5 61 C-2.36549616 68.71696175 -11.44614843 73.77495841 -22.26953125 74.3359375 C-36.49036701 74.62137808 -46.1179135 71.68222398 -57 62 C-65.61689956 52.25301525 -68.41759718 41.19711961 -68.2734375 28.41015625 C-67.41017121 17.64399238 -61.53778866 7.94531404 -53.6875 0.6875 C-37.24127906 -12.329352 -16.80606986 -12.09486011 0 0 Z " fill="#E37401" transform="translate(139,400)"/>
<path d="M0 0 C8.03609445 4.50286945 13.10443912 10.90299765 16.61328125 19.32421875 C18.75854974 27.9052927 18.49446188 36.5363178 18.4609375 45.32421875 C18.45906935 46.77010041 18.45764732 48.21598271 18.45664978 49.66186523 C18.45285588 53.44295032 18.44305276 57.22399619 18.4319458 61.00506592 C18.42166399 64.87316355 18.41713774 68.7412676 18.41210938 72.609375 C18.40142729 80.18100942 18.38385629 87.75260356 18.36328125 95.32421875 C12.42328125 95.32421875 6.48328125 95.32421875 0.36328125 95.32421875 C0.35393555 93.4326001 0.34458984 91.54098145 0.33496094 89.59204102 C0.2993133 83.31343701 0.24543956 77.03519178 0.17937851 70.75683689 C0.14001703 66.95351604 0.10777364 63.15042277 0.09228516 59.34692383 C0.07704302 55.67023455 0.04246633 51.99417143 -0.00502777 48.31776237 C-0.01976436 46.92134 -0.0277553 45.52482819 -0.0286026 44.12832832 C-0.0403634 34.45627842 -0.83676701 27.17971264 -6.88671875 19.44921875 C-12.77976489 14.89550128 -18.55812466 13.7472048 -25.95703125 13.97265625 C-32.62182742 14.84704642 -37.31530655 18.28257118 -41.63671875 23.32421875 C-48.00976407 31.70022117 -47.95543868 39.52196138 -48.05078125 49.6953125 C-48.0701474 50.97277847 -48.08951355 52.25024445 -48.10946655 53.56642151 C-48.15894881 56.94142406 -48.20028947 60.31632262 -48.23760986 63.69146729 C-48.27781617 67.1440184 -48.32883212 70.59640852 -48.37890625 74.04882812 C-48.47475127 80.80719638 -48.55885544 87.56562038 -48.63671875 94.32421875 C-54.57671875 94.32421875 -60.51671875 94.32421875 -66.63671875 94.32421875 C-66.63671875 62.64421875 -66.63671875 30.96421875 -66.63671875 -1.67578125 C-60.69671875 -1.67578125 -54.75671875 -1.67578125 -48.63671875 -1.67578125 C-47.97671875 2.94421875 -47.31671875 7.56421875 -46.63671875 12.32421875 C-45.89421875 11.31359375 -45.15171875 10.30296875 -44.38671875 9.26171875 C-33.64927531 -3.38117029 -14.94418699 -6.46296402 0 0 Z " fill="#767676" transform="translate(617.63671875,384.67578125)"/>
<path d="M0 0 C5.61 0 11.22 0 17 0 C22.98237144 11.58884521 28.16059924 23.43378478 33.25 35.4375 C34.05949531 37.33806127 34.86938885 39.23845297 35.6796875 41.13867188 C37.16163467 44.61541765 38.64132127 48.09310454 40.11816406 51.57202148 C41.73713753 55.38494103 43.36580678 59.19357999 45 63 C46.54926787 60.67609819 47.6478326 58.71752336 48.75244141 56.19726562 C49.08684235 55.43796753 49.42124329 54.67866943 49.76577759 53.8963623 C50.12408661 53.07462524 50.48239563 52.25288818 50.8515625 51.40625 C51.41815079 50.1151532 51.41815079 50.1151532 51.9961853 48.79797363 C52.79943061 46.96600704 53.60128237 45.1334289 54.40185547 43.30029297 C55.59675121 40.56467338 56.79600412 37.83100064 57.99609375 35.09765625 C63.10483015 23.4422862 68.0862829 11.73894886 73 0 C78.94 0 84.88 0 91 0 C88.85065359 6.74740786 86.31551841 13.21929736 83.51953125 19.72265625 C82.85747932 21.2742746 82.85747932 21.2742746 82.18205261 22.85723877 C80.72891791 26.26044944 79.27072476 29.66146762 77.8125 33.0625 C76.79201605 35.44998502 75.77183897 37.83760122 74.75195312 40.2253418 C71.50712628 47.81939185 68.25435951 55.41003109 65 63 C64.72593071 63.63922394 64.45186142 64.27844788 64.169487 64.93704224 C62.5153384 68.7949944 60.86093769 72.65283839 59.2063961 76.51062202 C58.39011833 78.41394816 57.57393398 80.31731434 56.75776672 82.22068787 C56.22092652 83.47256889 55.68407661 84.72444575 55.1472168 85.97631836 C54.88422067 86.58958449 54.62122454 87.20285063 54.35025883 87.83470058 C52.56337141 92.00076214 50.77387637 96.16569782 48.98364258 100.33032227 C43.89264113 112.18263018 38.87233801 124.05600475 34 136 C28.06 136 22.12 136 16 136 C16.70806795 131.7515923 17.12644759 129.2491052 18.78173828 125.55859375 C19.14526398 124.7375415 19.50878967 123.91648926 19.8833313 123.07055664 C20.47088699 121.7671936 20.47088699 121.7671936 21.0703125 120.4375 C21.89239815 118.57051985 22.71399809 116.70332577 23.53515625 114.8359375 C24.83067915 111.91030925 26.13084496 108.98696443 27.43994141 106.06738281 C28.70515151 103.23814652 29.95135282 100.40113068 31.1953125 97.5625 C31.78894089 96.25913696 31.78894089 96.25913696 32.39456177 94.92944336 C34.85882222 89.26548615 35.48948161 86.0139004 33.2862854 80.07666016 C32.38044735 77.78789694 31.40986463 75.53574096 30.421875 73.28125 C30.05862625 72.43794632 29.6953775 71.59464264 29.32112122 70.7257843 C28.13704433 67.98108501 26.94362605 65.24055825 25.75 62.5 C24.93162004 60.60792121 24.11383422 58.71558532 23.29663086 56.82299805 C21.25413505 52.09674102 19.20416156 47.37377177 17.15179443 42.65179443 C15.43678302 38.70329669 13.72802259 34.75210347 12.01953125 30.80078125 C9.85162225 25.78863511 7.67998898 20.77813629 5.50390625 15.76953125 C5.06578613 14.75713379 4.62766602 13.74473633 4.17626953 12.70166016 C3.45771174 11.05127399 2.73142439 9.40419135 1.99169922 7.76318359 C0.73847388 4.9614704 0 3.11448722 0 0 Z " fill="#777777" transform="translate(782,385)"/>
<path d="M0 0 C2.07287663 1.60910073 4.0403871 3.25223714 6 5 C4.59155282 8.21524305 2.89655214 10.32183868 0.375 12.75 C-0.57246094 13.67039062 -0.57246094 13.67039062 -1.5390625 14.609375 C-2.02117187 15.06828125 -2.50328125 15.5271875 -3 16 C-5.73599142 14.73409352 -7.40014065 13.63708174 -9.6875 11.5625 C-16.45787337 5.88412234 -24.17218167 5.51267907 -32.7421875 5.70703125 C-36.8913256 6.08015518 -39.45986629 6.82764523 -43 9 C-45.4737539 12.71063085 -45.64950116 15.69810918 -45 20 C-42.20450279 25.34790771 -37.4433168 27.08227762 -32 29 C-29.35615038 29.76875012 -26.69971976 30.46684507 -24.03515625 31.16015625 C-12.37614665 34.38626573 -2.31149275 37.29765804 4.0546875 48.1328125 C7.56820458 55.07273467 6.79258995 63.51874711 4.5 70.75 C1.12921127 78.8726645 -4.08568536 83.43329232 -12.0625 86.9375 C-16.38979864 88.55345864 -20.36033764 89.7373776 -25 90 C-25.68320313 90.05027344 -26.36640625 90.10054688 -27.0703125 90.15234375 C-40.82320246 90.75133722 -51.40668653 83.51963255 -61.1875 74.5625 C-62.79936424 73.0498274 -64.40642499 71.53192801 -66 70 C-64.52202738 66.32943063 -62.52384523 64.58914217 -59.375 62.25 C-58.55773438 61.63640625 -57.74046875 61.0228125 -56.8984375 60.390625 C-55.95871094 59.70226562 -55.95871094 59.70226562 -55 59 C-52.15776803 60.36239218 -50.03972359 61.55233169 -48 64 C-48 64.66 -48 65.32 -48 66 C-47.443125 66.268125 -46.88625 66.53625 -46.3125 66.8125 C-44 68 -44 68 -41.5 69.5625 C-35.78979928 72.84586542 -29.42254081 72.48147562 -23 72 C-18.72578824 70.50027657 -16.31776859 68.90361026 -14 65 C-12.80245183 61.40735548 -12.66905042 58.77282526 -13 55 C-15.66639984 51.70980937 -18.0582731 50.31274063 -22.0625 49.0625 C-23.11308594 48.73121094 -24.16367188 48.39992188 -25.24609375 48.05859375 C-28.04629601 47.26894254 -30.83518646 46.53626772 -33.66015625 45.84765625 C-45.24318947 43.01296086 -55.92681884 40.38873482 -63 30 C-66.3739033 23.27612179 -66.17446259 13.64158866 -64.34765625 6.421875 C-60.35225536 -2.2891278 -52.55387691 -7.73311147 -43.9375 -11.25 C-27.99186368 -15.12098966 -12.74328277 -9.41801538 0 0 Z " fill="#777777" transform="translate(1154,392)"/>
<path d="M0 0 C7.02623991 5.1235064 16.36490878 13.01709142 18 22 C15.90421865 23.5337173 13.79977463 25.05180837 11.6875 26.5625 C11.09259766 27.00013672 10.49769531 27.43777344 9.88476562 27.88867188 C8.31029927 29.00575136 6.65793081 30.01102259 5 31 C1.2606985 29.75356617 0.85904685 28.53614173 -1.1875 25.25 C-4.80348331 19.89497386 -8.68987472 16.36619513 -14.91015625 14.39453125 C-23.18626733 12.83212523 -30.66303877 13.76375755 -37.8359375 18.11328125 C-44.25168748 22.86205689 -48.57060781 31.19331958 -50 39 C-51.01799691 48.99639591 -49.00860035 59.14530933 -43.25 67.5 C-38.92748519 72.70241604 -33.02832828 76.60451195 -26.21484375 77.2734375 C-17.43283819 77.54558547 -10.7083796 76.38535148 -4.12109375 70.25 C-1.53444048 67.35793466 0.34092863 64.5101649 2 61 C6.34863652 61.56444825 9.17827655 63.15427964 12.8125 65.5625 C13.78832031 66.20316406 14.76414062 66.84382813 15.76953125 67.50390625 C16.50558594 67.99761719 17.24164062 68.49132812 18 69 C12.96064955 80.83151844 4.36462282 89.22833721 -7.55078125 94.02734375 C-17.81612112 97.32746042 -29.36671273 97.62031784 -39.375 93.390625 C-53.10098589 86.11912057 -61.73499173 76.02917365 -66.609375 61.3828125 C-70.52074279 47.93717431 -69.70555151 31.35894388 -63 19 C-56.49862503 8.22517616 -47.46185113 -0.47708768 -35.2734375 -4.37109375 C-23.30102839 -6.67128213 -10.7036312 -6.26447174 0 0 Z " fill="#777777" transform="translate(1057,384)"/>
<path d="M0 0 C7.26 0 14.52 0 22 0 C22 51.15 22 102.3 22 155 C14.74 155 7.48 155 0 155 C0 103.85 0 52.7 0 0 Z " fill="#757575" transform="translate(927,118)"/>
<path d="M0 0 C5.94 0 11.88 0 18 0 C18 9.24 18 18.48 18 28 C24.93 28 31.86 28 39 28 C39 33.94 39 39.88 39 46 C32.07 46 25.14 46 18 46 C18.04415965 53.58099311 18.11400397 61.16115396 18.20751953 68.74169922 C18.23572159 71.31975679 18.25693987 73.89790071 18.27099609 76.47607422 C18.29243509 80.18501975 18.33909396 83.89292793 18.390625 87.6015625 C18.39185364 88.75177887 18.39308228 89.90199524 18.39434814 91.08706665 C18.50745863 97.28601787 18.66829621 101.37566643 23 106 C28.12058932 108.10847796 33.52011219 108.52781012 39 109 C41.03572886 113.34288823 41.46374743 117.28484223 42 122 C38.00025019 122.11710979 34.00094719 122.18755489 30 122.25 C28.87464844 122.28351563 27.74929688 122.31703125 26.58984375 122.3515625 C18.65169277 122.44440637 13.05235565 121.57467129 7.01171875 116.24609375 C0.3502011 107.14791477 -0.44726779 97.31897616 -0.29296875 86.33203125 C-0.28872391 85.17120529 -0.28447906 84.01037933 -0.28010559 82.81437683 C-0.26346074 79.14683749 -0.22583488 75.47987016 -0.1875 71.8125 C-0.17243484 69.30925279 -0.15874966 66.80599687 -0.14648438 64.30273438 C-0.11360372 58.20160623 -0.06192034 52.10089972 0 46 C-5.94 46 -11.88 46 -18 46 C-18 40.06 -18 34.12 -18 28 C-12.06 28 -6.12 28 0 28 C0 18.76 0 9.52 0 0 Z " fill="#767676" transform="translate(897,355)"/>
<path d="M0 0 C6.86001613 3.59808468 11.20132831 9.15461975 13.96484375 16.31640625 C16.68439537 25.46964 15.76556154 35.35202273 12.15234375 44.12890625 C6.89487399 53.11797092 0.07722852 57.38521455 -9.84765625 60.12890625 C-16.17544687 61.26495484 -21.4595892 59.33541735 -26.84765625 56.12890625 C-35.14189955 50.0660346 -39.80299973 43.22074665 -41.84765625 33.12890625 C-43.18018003 23.23636559 -40.21763183 14.24602469 -34.28515625 6.25390625 C-24.75832687 -3.68819518 -12.19716772 -5.53015345 0 0 Z " fill="#FDFDFD" transform="translate(766.84765625,193.87109375)"/>
<path d="M0 0 C8.065595 5.07109238 12.86767712 11.12775052 15.70703125 20.296875 C17.59335068 30.14765424 15.59305299 39.55436961 10.46875 48.06640625 C6.76378634 53.31665626 1.77441554 56.47607348 -3.90625 59.31640625 C-13.79428755 59.94498565 -21.56524298 59.84147088 -30.03125 54.25390625 C-36.18857185 48.70222262 -40.40841377 40.2021479 -41.2421875 32.01953125 C-41.37200994 20.54322775 -39.22120682 12.68496833 -31.1640625 4.30078125 C-22.20149373 -3.57635532 -10.79355407 -5.61186597 0 0 Z " fill="#FDFDFD" transform="translate(655.90625,193.68359375)"/>
<path d="M0 0 C7.67553517 4.37312004 11.59931689 11.14951317 14.32421875 19.32421875 C15.10734321 31.23798105 14.83269829 41.80418092 7.32421875 51.69921875 C2.17118207 57.08497322 -5.40821932 60.42450491 -12.86328125 60.88671875 C-19.80613776 59.86236287 -27.1656097 56.9307856 -31.67578125 51.32421875 C-38.00027197 40.36770666 -40.73742889 29.85002443 -38.02734375 17.328125 C-35.13961044 9.41771024 -30.21306942 3.4433308 -22.86328125 -0.67578125 C-14.93045965 -4.21614792 -7.83571741 -3.50577623 0 0 Z " fill="#FDFDFD" transform="translate(874.67578125,193.67578125)"/>
<path d="M0 0 C5.94 0 11.88 0 18 0 C18 45.54 18 91.08 18 138 C12.06 138 6.12 138 0 138 C0 92.46 0 46.92 0 0 Z " fill="#757575" transform="translate(754,341)"/>
<path d="M0 0 C5.94 0 11.88 0 18 0 C18 31.68 18 63.36 18 96 C12.06 96 6.12 96 0 96 C0 64.32 0 32.64 0 0 Z " fill="#767676" transform="translate(954,383)"/>
<path d="M0 0 C0.66 0 1.32 0 2 0 C2.4125 1.10174561 2.825 2.20349121 3.25 3.33862305 C5.16592253 8.45519424 7.08287627 13.57137879 9 18.6875 C9.34225616 19.60105255 9.68451233 20.5146051 10.03713989 21.45584106 C14.29155529 32.80985212 18.55104858 44.16128469 22.91601562 55.47338867 C25 60.89659177 25 60.89659177 25 62 C9.82 62 -5.36 62 -21 62 C-18.75 51.875 -18.75 51.875 -17.02880859 47.11303711 C-16.45844376 45.522407 -16.45844376 45.522407 -15.8765564 43.89964294 C-15.47127716 42.78678421 -15.06599792 41.67392548 -14.6484375 40.52734375 C-14.22954254 39.3636879 -13.81064758 38.20003204 -13.37905884 37.00111389 C-12.04949548 33.31137017 -10.71237193 29.6244197 -9.375 25.9375 C-8.46763074 23.42553263 -7.56199343 20.91294516 -6.65625 18.40039062 C-4.44324377 12.26484003 -2.22403605 6.13156049 0 0 Z " fill="#FCFCFC" transform="translate(480,363)"/>
<path d="M0 0 C1.546875 0.97265625 1.546875 0.97265625 2.546875 1.97265625 C2.92440036 9.32619368 0.15095818 14.44128699 -4.453125 19.97265625 C-6.37542838 22.00895067 -8.10962452 23.33220591 -10.453125 24.97265625 C-11.00226562 25.36453125 -11.55140625 25.75640625 -12.1171875 26.16015625 C-18.40627025 30.01389207 -25.30151833 29.79784164 -32.453125 28.97265625 C-36.71419988 27.74677778 -39.56475144 25.70556444 -42.953125 22.91015625 C-45.30622787 18.30199646 -45.2600175 14.03209031 -44.453125 8.97265625 C-42.76119895 4.41550871 -39.47422219 1.62220623 -35.453125 -0.96484375 C-25.30519859 -5.58031631 -9.89620006 -4.89546067 0 0 Z " fill="#FDFDFD" transform="translate(715.453125,436.02734375)"/>
<path d="M0 0 C2.94217352 1.92298923 5.59253628 3.66670156 6.66015625 7.16015625 C6.77230469 7.76730469 6.88445312 8.37445313 7 9 C-0.41326518 12.88695525 -8.02270243 16.21390941 -15.76000977 19.39428711 C-17.6971987 20.19149127 -19.63090587 20.99674378 -21.56445312 21.80273438 C-22.81750901 22.32079487 -24.07075762 22.83838952 -25.32421875 23.35546875 C-26.9961731 24.04612427 -26.9961731 24.04612427 -28.7019043 24.75073242 C-32.11054735 26.04187363 -35.4842029 27.04803118 -39 28 C-38.81364736 19.08895571 -37.22756914 11.70616188 -31.13671875 4.92578125 C-22.11446182 -3.43075575 -11.09897492 -5.98916848 0 0 Z " fill="#FCFCFC" transform="translate(1021,194)"/>
<path d="M0 0 C3.70390021 2.02666238 5.65363011 3.48044516 8 7 C8.69502786 11.76821439 8.69437161 15.76556158 6.3125 20 C3.00154028 22.86353273 0.39817368 23.75683936 -3.875 24.5 C-8.3709062 23.78065501 -10.93399192 21.26027305 -14 18 C-15.63125565 14.7374887 -15.68851113 11.5120384 -15 8 C-11.05980489 1.64719312 -7.56486225 -0.63040519 0 0 Z " fill="#777777" transform="translate(965,337)"/>
</svg>
